<svg width="137" height="44" viewBox="0 0 137 44" fill="none" xmlns="http://www.w3.org/2000/svg">
<path d="M18.4543 43.5069V19.9011H23.7038V43.5069H18.4543ZM22.5001 43.5069V38.8927H34.1693V43.5069H22.5001Z" fill="white"/>
<path d="M44.2915 43.8747C42.6197 43.8747 41.1039 43.5069 39.7442 42.7713C38.4068 42.0134 37.348 40.9881 36.5678 39.6952C35.7876 38.4024 35.3975 36.9535 35.3975 35.3485C35.3975 33.7436 35.7876 32.3059 36.5678 31.0353C37.348 29.7647 38.4068 28.7616 39.7442 28.026C41.0816 27.2682 42.5974 26.8892 44.2915 26.8892C45.9856 26.8892 47.5014 27.257 48.8388 27.9926C50.1762 28.7282 51.235 29.7424 52.0152 31.0353C52.7954 32.3059 53.1855 33.7436 53.1855 35.3485C53.1855 36.9535 52.7954 38.4024 52.0152 39.6952C51.235 40.9881 50.1762 42.0134 48.8388 42.7713C47.5014 43.5069 45.9856 43.8747 44.2915 43.8747ZM44.2915 39.2271C45.0271 39.2271 45.6735 39.0711 46.2308 38.759C46.7881 38.4246 47.2116 37.9677 47.5014 37.3881C47.8134 36.7863 47.9695 36.1064 47.9695 35.3485C47.9695 34.5906 47.8134 33.9331 47.5014 33.3758C47.1893 32.7962 46.7546 32.3504 46.1974 32.0384C45.6624 31.704 45.0271 31.5368 44.2915 31.5368C43.5782 31.5368 42.9429 31.704 42.3856 32.0384C41.8284 32.3504 41.3937 32.7962 41.0816 33.3758C40.7696 33.9554 40.6135 34.6241 40.6135 35.382C40.6135 36.1176 40.7696 36.7863 41.0816 37.3881C41.3937 37.9677 41.8284 38.4246 42.3856 38.759C42.9429 39.0711 43.5782 39.2271 44.2915 39.2271Z" fill="white"/>
<path d="M60.2128 33.777V29.8985H65.1948C66.2424 29.8985 67.0449 29.631 67.6021 29.096C68.1817 28.561 68.4715 27.8366 68.4715 26.9227C68.4715 26.0756 68.1928 25.3735 67.6356 24.8162C67.0783 24.2589 66.2758 23.9803 65.2282 23.9803H60.2128V19.9011H65.83C67.3904 19.9011 68.7613 20.202 69.9427 20.8039C71.1241 21.3834 72.0491 22.197 72.7179 23.2447C73.3866 24.2924 73.7209 25.4961 73.7209 26.8558C73.7209 28.2378 73.3866 29.4526 72.7179 30.5003C72.0491 31.5257 71.1129 32.3281 69.9092 32.9077C68.7055 33.4873 67.2901 33.777 65.6629 33.777H60.2128ZM56.2005 43.5069V19.9011H61.4499V43.5069H56.2005ZM69.0399 43.5069L61.684 33.3424L66.4988 32.0384L75.259 43.5069H69.0399Z" fill="white"/>
<path d="M83.45 43.8413C81.9566 43.8413 80.6191 43.4735 79.4377 42.7379C78.2786 42.0023 77.3535 40.9992 76.6625 39.7286C75.9938 38.4581 75.6594 37.0092 75.6594 35.382C75.6594 33.7547 75.9938 32.3059 76.6625 31.0353C77.3535 29.7647 78.2786 28.7616 79.4377 28.026C80.6191 27.2905 81.9566 26.9227 83.45 26.9227C84.5423 26.9227 85.5231 27.1344 86.3924 27.5579C87.284 27.9815 88.0085 28.5722 88.5657 29.33C89.123 30.0656 89.4351 30.9127 89.5019 31.8712V38.8927C89.4351 39.8512 89.123 40.7094 88.5657 41.4673C88.0308 42.2029 87.3175 42.7825 86.4258 43.206C85.5342 43.6295 84.5423 43.8413 83.45 43.8413ZM84.4865 39.2271C85.5788 39.2271 86.4593 38.8705 87.128 38.1572C87.7967 37.4216 88.1311 36.4965 88.1311 35.382C88.1311 34.6241 87.975 33.9554 87.663 33.3758C87.3732 32.7962 86.9497 32.3504 86.3924 32.0384C85.8574 31.704 85.2333 31.5368 84.52 31.5368C83.8067 31.5368 83.1714 31.704 82.6141 32.0384C82.0792 32.3504 81.6445 32.7962 81.3101 33.3758C80.9981 33.9554 80.842 34.6241 80.842 35.382C80.842 36.1176 80.9981 36.7751 81.3101 37.3547C81.6222 37.9342 82.0569 38.3912 82.6141 38.7256C83.1714 39.0599 83.7955 39.2271 84.4865 39.2271ZM87.9305 43.5069V39.1268L88.6995 35.1813L87.9305 31.2359V27.257H92.9459V43.5069H87.9305Z" fill="white"/>
<path d="M97.0159 43.5069V19.9011H102.265V43.5069H97.0159ZM101.028 34.2451V29.7313H112.831V34.2451H101.028ZM101.028 24.415V19.9011H113.366V24.415H101.028Z" fill="white"/>
<path d="M123.994 34.7132L114.899 19.9011H120.984L127.972 31.8712H124.06L131.049 19.9011H137L127.839 34.7132H123.994ZM123.358 43.5069V32.3059H128.608V43.5069H123.358Z" fill="white"/>
<path d="M30.19 19.8965C31.3488 19.8091 32.2359 18.7899 31.9426 17.6653C31.6517 16.5499 31.1966 15.4798 30.5889 14.4911C29.6125 12.9025 28.2706 11.5702 26.675 10.6052C25.0795 9.6402 23.2764 9.07046 21.416 8.94344C19.5556 8.81643 17.6918 9.13581 15.9799 9.87499C14.2679 10.6142 12.7574 11.7517 11.5742 13.1929C10.3909 14.6341 9.56918 16.3372 9.17743 18.1603C8.78568 19.9834 8.83525 21.8737 9.32202 23.6737C9.62495 24.794 10.0917 25.859 10.7041 26.8357C11.3215 27.8203 12.6716 27.8735 13.53 27.09C14.3883 26.3065 14.4157 24.9814 13.9007 23.9396C13.6855 23.5041 13.5123 23.0473 13.3847 22.5751C13.0729 21.4224 13.0412 20.2119 13.2921 19.0445C13.5429 17.877 14.0692 16.7864 14.8269 15.8635C15.5846 14.9406 16.5519 14.2121 17.6482 13.7388C18.7445 13.2654 19.938 13.0609 21.1293 13.1422C22.3207 13.2236 23.4753 13.5884 24.4971 14.2064C25.5189 14.8243 26.3782 15.6775 27.0034 16.6948C27.2595 17.1115 27.4733 17.5508 27.6427 18.0061C28.0479 19.0954 29.0311 19.984 30.19 19.8965Z" fill="#2C21AF"/>
<path d="M39.0748 19.5779C40.2513 19.5116 41.1625 18.5008 40.975 17.3375C40.5584 14.7533 39.6524 12.2654 38.2989 10.0098C36.5785 7.14264 34.1866 4.73695 31.3294 3.00006C28.4722 1.26317 25.2355 0.247204 21.8982 0.0397331C18.561 -0.167737 15.2234 0.439517 12.173 1.80915C9.12274 3.17878 6.45128 5.26969 4.38897 7.90164C2.32666 10.5336 0.935374 13.6276 0.335046 16.917C-0.265281 20.2063 -0.0566376 23.5923 0.942992 26.7831C1.72942 29.2933 2.98683 31.6235 4.64134 33.6518C5.38618 34.5649 6.74699 34.5555 7.57829 33.7203C8.40959 32.8851 8.39351 31.5415 7.6736 30.6086C6.49637 29.083 5.59455 27.3568 5.01513 25.5073C4.22239 22.9769 4.05692 20.2917 4.53301 17.6831C5.00909 15.0745 6.11244 12.6208 7.74793 10.5336C9.38342 8.44637 11.502 6.7882 13.921 5.70203C16.34 4.61586 18.9869 4.13428 21.6335 4.29881C24.28 4.46334 26.8469 5.26905 29.1127 6.64647C31.3786 8.02389 33.2755 9.9317 34.6399 12.2054C35.6371 13.8673 36.328 15.6882 36.6859 17.5816C36.9048 18.7395 37.8983 19.6443 39.0748 19.5779Z" fill="#2C21AF"/>
</svg>
